<svg width="50" height="50" viewBox="0 0 50 50" fill="none" xmlns="http://www.w3.org/2000/svg">
<path d="M0.5 25C0.5 11.469 11.469 0.5 25 0.5C38.531 0.5 49.5 11.469 49.5 25C49.5 38.531 38.531 49.5 25 49.5C11.469 49.5 0.5 38.531 0.5 25Z" stroke="white"/>
<path d="M41 13.6615C39.8232 14.2803 38.5591 14.6984 37.2301 14.8873C38.6013 13.9137 39.6272 12.3813 40.1164 10.5761C38.828 11.4842 37.418 12.1233 35.9476 12.4658C34.9588 11.2131 33.6491 10.3827 32.2218 10.1037C30.7945 9.82464 29.3296 10.1126 28.0543 10.9227C26.7791 11.7329 25.7649 13.02 25.1693 14.5841C24.5737 16.1483 24.43 17.9021 24.7604 19.5731C22.1499 19.4176 19.5961 18.6124 17.2648 17.21C14.9335 15.8075 12.8768 13.8391 11.2281 11.4324C10.6644 12.5862 10.3403 13.9241 10.3403 15.3489C10.3396 16.6315 10.6058 17.8945 11.1152 19.0258C11.6246 20.1571 12.3615 21.1217 13.2604 21.8341C12.2179 21.7947 11.1984 21.4604 10.2867 20.8591V20.9594C10.2866 22.7584 10.811 24.502 11.771 25.8944C12.7309 27.2868 14.0673 28.2422 15.5533 28.5985C14.5862 28.9091 13.5723 28.9548 12.5881 28.7323C13.0074 30.2802 13.8241 31.6338 14.9239 32.6035C16.0237 33.5733 17.3515 34.1107 18.7215 34.1405C16.3959 36.3068 13.5238 37.4819 10.5672 37.4767C10.0434 37.4769 9.52015 37.4406 9 37.368C12.0011 39.6577 15.4946 40.8729 19.0625 40.8681C31.1404 40.8681 37.7431 28.9982 37.7431 18.7035C37.7431 18.369 37.736 18.0312 37.7233 17.6968C39.0076 16.5947 40.1162 15.23 40.9972 13.6665L41 13.6615Z" fill="#FB9300"/>
</svg>
